# xmcd CD database file
#
# Track frame offsets:
#	150
#	14867
#	26022
#	39549
#	53724
#	67486
#	82360
#	93967
#	108402
#	122457
#	134204
#	147663
#	161814
#	174774
#	189682
#	202149
#	217149
#	228054
#
# Disc length: 3223 seconds
#
# Revision: 0
# Processed by: cddbd v1.5.1PL0 Copyright (c) Steve Scherf et al.
# Submitted via: CDex 1.51
#
DISCID=1d0c9512
DTITLE=Ella Fitzgerald - Vintage Collection
DYEAR=1900
DGENRE=Jazz
TTITLE0=How High the Moon
TTITLE1=Flying Home
TTITLE2=My Melancholy Baby
TTITLE3=Lady Be Good
TTITLE4=A Little Bit Later On
TTITLE5=Sentimental Journey
TTITLE6=It Is Only a Paper Moon
TTITLE7=Dedicated to You
TTITLE8=Basin Street Blues
TTITLE9=Sing Me a Swing Song
TTITLE10=You Won't Be Satisfied
TTITLE11=Sugar Pie
TTITLE12=Lullaby of Birdland
TTITLE13=You Showed Me the Way
TTITLE14=Big Boy Blue
TTITLE15=The Frim Fram Sauce
TTITLE16=Did You Mean It
TTITLE17=My Man
EXTD=
EXTT0=
EXTT1=
EXTT2=
EXTT3=
EXTT4=
EXTT5=
EXTT6=
EXTT7=
EXTT8=
EXTT9=
EXTT10=
EXTT11=
EXTT12=
EXTT13=
EXTT14=
EXTT15=
EXTT16=
EXTT17=
PLAYORDER=
